<svg xmlns="http://www.w3.org/2000/svg" width="10.912" height="8.763" viewBox="0 0 10.912 8.763"><defs><style>.a{fill:#f60;}</style></defs><path class="a" d="M3.913,9.453.189,5.73a.654.654,0,0,1,0-.928l.619-.619a.654.654,0,0,1,.928,0L4.375,6.822,7.015,4.183a.654.654,0,0,1,.928,0l.624.616a.654.654,0,0,1,0,.928L4.844,9.451A.655.655,0,0,1,3.913,9.453Zm.931,5.256,3.723-3.723a.654.654,0,0,0,0-.928L7.948,9.44a.654.654,0,0,0-.928,0L4.378,12.076,1.739,9.437a.654.654,0,0,0-.928,0l-.621.619a.654.654,0,0,0,0,.928l3.723,3.723A.655.655,0,0,0,4.844,14.71Z" transform="translate(-3.99 8.76) rotate(-90)"/></svg>