<?xml version="1.0" encoding="utf-8"?>
<!-- Generator: Adobe Illustrator 16.0.0, SVG Export Plug-In . SVG Version: 6.00 Build 0)  -->
<!DOCTYPE svg PUBLIC "-//W3C//DTD SVG 1.1//EN" "http://www.w3.org/Graphics/SVG/1.1/DTD/svg11.dtd">
<svg version="1.1" id="Capa_1" xmlns="http://www.w3.org/2000/svg" xmlns:xlink="http://www.w3.org/1999/xlink" x="0px" y="0px"
	 width="40px" height="40px" viewBox="55 55 40 40" enable-background="new 55 55 40 40" xml:space="preserve">
<path d="M56.117,93.843c0.694,0.694,1.592,1.041,2.518,1.041c0.926,0,1.823-0.347,2.518-1.041l13.835-13.835l13.834,13.835
	c0.695,0.694,1.592,1.041,2.519,1.041c0.926,0,1.823-0.347,2.519-1.041c1.389-1.39,1.389-3.618,0-5.008L79.993,75l13.836-13.835
	c1.389-1.389,1.389-3.618,0-5.007c-1.39-1.39-3.618-1.39-5.008,0L74.987,69.993L61.152,56.159c-1.389-1.39-3.618-1.39-5.007,0
	c-1.389,1.389-1.389,3.618,0,5.007L69.98,75L56.146,88.835C54.756,90.225,54.756,92.452,56.117,93.843z"/>
</svg>
